<svg xmlns="http://www.w3.org/2000/svg" width="512" height="512" viewBox="0 0 512 512">
  <rect width="100%" height="100%" fill="#0b1220"/>
  <g transform="translate(256,200)">
    <path d="M0,-120 C70,-120 110,-80 110,-20 C110,40 70,80 0,120 C-70,80 -110,40 -110,-20 C-110,-80 -70,-120 0,-120 Z" fill="#00a3ff"/>
    <path d="M0,-100 C50,-100 80,-70 80,-20 C80,30 50,60 0,90 C-50,60 -80,30 -80,-20 C-80,-70 -50,-100 0,-100 Z" fill="#ffffff"/>
    <circle cx="40" cy="-30" r="8" fill="#00a3ff" opacity="0.9"/>
  </g>
  <text x="50%" y="88%" font-size="36" fill="#86d0ff" font-family="Helvetica, Arial, sans-serif" text-anchor="middle">Mina System</text>
</svg>
